<mxfile host="app.diagrams.net" modified="2024-02-27T19:04:02.827Z" agent="Mozilla/5.0 (Windows NT 10.0; Win64; x64) AppleWebKit/537.36 (KHTML, like Gecko) Chrome/122.0.0.0 Safari/537.36" etag="cGUaQUiDYYNjc6tyyoXI" version="23.1.7" type="device">
  <diagram name="PÃ¡gina-1" id="a8BBCeJsF_rtLYqyGDeC">
    <mxGraphModel dx="1400" dy="753" grid="1" gridSize="10" guides="1" tooltips="1" connect="1" arrows="1" fold="1" page="1" pageScale="1" pageWidth="1169" pageHeight="827" math="0" shadow="0">
      <root>
        <mxCell id="0" />
        <mxCell id="1" parent="0" />
        <mxCell id="ygkBEAkFPcBX6Wyesa4U-2" style="edgeStyle=orthogonalEdgeStyle;rounded=0;orthogonalLoop=1;jettySize=auto;html=1;" edge="1" parent="1" source="UZARBfqPq7mCM7FByuxc-1">
          <mxGeometry relative="1" as="geometry">
            <mxPoint x="1068.81" y="260" as="targetPoint" />
          </mxGeometry>
        </mxCell>
        <mxCell id="UZARBfqPq7mCM7FByuxc-1" value="" style="sketch=0;pointerEvents=1;shadow=0;dashed=0;html=1;strokeColor=none;fillColor=#505050;labelPosition=center;verticalLabelPosition=bottom;verticalAlign=top;outlineConnect=0;align=center;shape=mxgraph.office.devices.modem;" parent="1" vertex="1">
          <mxGeometry x="1033.81" y="160" width="70" height="40" as="geometry" />
        </mxCell>
        <mxCell id="ygkBEAkFPcBX6Wyesa4U-38" style="edgeStyle=orthogonalEdgeStyle;rounded=0;orthogonalLoop=1;jettySize=auto;html=1;" edge="1" parent="1" source="UZARBfqPq7mCM7FByuxc-5">
          <mxGeometry relative="1" as="geometry">
            <mxPoint x="950" y="312.41499999999996" as="targetPoint" />
          </mxGeometry>
        </mxCell>
        <mxCell id="UZARBfqPq7mCM7FByuxc-5" value="" style="image;points=[];aspect=fixed;html=1;align=center;shadow=0;dashed=0;image=img/lib/allied_telesis/computer_and_terminals/Server_Desktop.svg;" parent="1" vertex="1">
          <mxGeometry x="1031.21" y="266.4" width="72.6" height="92.03" as="geometry" />
        </mxCell>
        <mxCell id="UZARBfqPq7mCM7FByuxc-7" style="edgeStyle=orthogonalEdgeStyle;rounded=0;orthogonalLoop=1;jettySize=auto;html=1;" parent="1" source="UZARBfqPq7mCM7FByuxc-6" edge="1" target="UZARBfqPq7mCM7FByuxc-1">
          <mxGeometry relative="1" as="geometry">
            <mxPoint x="320" y="140" as="targetPoint" />
          </mxGeometry>
        </mxCell>
        <mxCell id="UZARBfqPq7mCM7FByuxc-6" value="" style="image;aspect=fixed;perimeter=ellipsePerimeter;html=1;align=center;shadow=0;dashed=0;spacingTop=3;image=img/lib/active_directory/internet_cloud.svg;" parent="1" vertex="1">
          <mxGeometry x="1020" y="20" width="97.62" height="61.5" as="geometry" />
        </mxCell>
        <mxCell id="ygkBEAkFPcBX6Wyesa4U-6" style="edgeStyle=orthogonalEdgeStyle;rounded=0;orthogonalLoop=1;jettySize=auto;html=1;entryX=0.412;entryY=1.09;entryDx=0;entryDy=0;entryPerimeter=0;" edge="1" parent="1" target="ygkBEAkFPcBX6Wyesa4U-5">
          <mxGeometry relative="1" as="geometry">
            <mxPoint x="600" y="160" as="targetPoint" />
            <mxPoint x="810" y="312" as="sourcePoint" />
          </mxGeometry>
        </mxCell>
        <mxCell id="ygkBEAkFPcBX6Wyesa4U-32" style="edgeStyle=orthogonalEdgeStyle;rounded=0;orthogonalLoop=1;jettySize=auto;html=1;exitX=0;exitY=1;exitDx=0;exitDy=0;" edge="1" parent="1" source="UZARBfqPq7mCM7FByuxc-9" target="ygkBEAkFPcBX6Wyesa4U-25">
          <mxGeometry relative="1" as="geometry" />
        </mxCell>
        <mxCell id="UZARBfqPq7mCM7FByuxc-9" value="" style="image;html=1;image=img/lib/clip_art/networking/Switch_128x128.png" parent="1" vertex="1">
          <mxGeometry x="820" y="257.40999999999997" width="120" height="110" as="geometry" />
        </mxCell>
        <mxCell id="UZARBfqPq7mCM7FByuxc-12" value="" style="image;html=1;image=img/lib/clip_art/computers/Printer_Commercial_128x128.png" parent="1" vertex="1">
          <mxGeometry x="345.6" y="358.42999999999995" width="80" height="80" as="geometry" />
        </mxCell>
        <mxCell id="UZARBfqPq7mCM7FByuxc-13" value="" style="image;html=1;image=img/lib/clip_art/computers/Printer_Commercial_128x128.png" parent="1" vertex="1">
          <mxGeometry x="292.8" y="358.42999999999995" width="80" height="80" as="geometry" />
        </mxCell>
        <mxCell id="UZARBfqPq7mCM7FByuxc-14" value="" style="image;html=1;image=img/lib/clip_art/computers/Printer_Commercial_128x128.png" parent="1" vertex="1">
          <mxGeometry x="529.9999999999999" y="630.9" width="80" height="80" as="geometry" />
        </mxCell>
        <mxCell id="UZARBfqPq7mCM7FByuxc-18" value="" style="image;points=[];aspect=fixed;html=1;align=center;shadow=0;dashed=0;image=img/lib/allied_telesis/computer_and_terminals/Personal_Computer.svg;" parent="1" vertex="1">
          <mxGeometry x="247.2" y="640" width="45.6" height="61.800000000000004" as="geometry" />
        </mxCell>
        <mxCell id="UZARBfqPq7mCM7FByuxc-19" value="" style="image;points=[];aspect=fixed;html=1;align=center;shadow=0;dashed=0;image=img/lib/allied_telesis/computer_and_terminals/Personal_Computer.svg;" parent="1" vertex="1">
          <mxGeometry x="192.01999999999998" y="640" width="45.6" height="61.800000000000004" as="geometry" />
        </mxCell>
        <mxCell id="UZARBfqPq7mCM7FByuxc-20" value="" style="image;points=[];aspect=fixed;html=1;align=center;shadow=0;dashed=0;image=img/lib/allied_telesis/computer_and_terminals/Personal_Computer.svg;" parent="1" vertex="1">
          <mxGeometry x="300.00000000000006" y="640" width="45.6" height="61.800000000000004" as="geometry" />
        </mxCell>
        <mxCell id="UZARBfqPq7mCM7FByuxc-21" value="" style="image;points=[];aspect=fixed;html=1;align=center;shadow=0;dashed=0;image=img/lib/allied_telesis/computer_and_terminals/Personal_Computer.svg;" parent="1" vertex="1">
          <mxGeometry x="354.4" y="640" width="45.6" height="61.800000000000004" as="geometry" />
        </mxCell>
        <mxCell id="UZARBfqPq7mCM7FByuxc-26" value="" style="image;html=1;image=img/lib/clip_art/networking/Print_Server_128x128.png" parent="1" vertex="1">
          <mxGeometry x="112.79999999999995" y="180" width="80" height="80" as="geometry" />
        </mxCell>
        <mxCell id="UZARBfqPq7mCM7FByuxc-37" value="" style="image;points=[];aspect=fixed;html=1;align=center;shadow=0;dashed=0;image=img/lib/allied_telesis/computer_and_terminals/Personal_Computer.svg;" parent="1" vertex="1">
          <mxGeometry x="130" y="390" width="45.6" height="61.800000000000004" as="geometry" />
        </mxCell>
        <mxCell id="UZARBfqPq7mCM7FByuxc-38" value="" style="image;points=[];aspect=fixed;html=1;align=center;shadow=0;dashed=0;image=img/lib/allied_telesis/computer_and_terminals/Personal_Computer.svg;" parent="1" vertex="1">
          <mxGeometry x="130" y="328.2" width="45.6" height="61.800000000000004" as="geometry" />
        </mxCell>
        <mxCell id="UZARBfqPq7mCM7FByuxc-50" value="" style="image;points=[];aspect=fixed;html=1;align=center;shadow=0;dashed=0;image=img/lib/allied_telesis/computer_and_terminals/Personal_Computer.svg;" parent="1" vertex="1">
          <mxGeometry x="130" y="513.6" width="45.6" height="61.800000000000004" as="geometry" />
        </mxCell>
        <mxCell id="UZARBfqPq7mCM7FByuxc-51" value="" style="image;points=[];aspect=fixed;html=1;align=center;shadow=0;dashed=0;image=img/lib/allied_telesis/computer_and_terminals/Personal_Computer.svg;" parent="1" vertex="1">
          <mxGeometry x="130" y="451.8" width="45.6" height="61.800000000000004" as="geometry" />
        </mxCell>
        <mxCell id="UZARBfqPq7mCM7FByuxc-52" value="" style="image;points=[];aspect=fixed;html=1;align=center;shadow=0;dashed=0;image=img/lib/allied_telesis/computer_and_terminals/Personal_Computer.svg;" parent="1" vertex="1">
          <mxGeometry x="130" y="266.4" width="45.6" height="61.800000000000004" as="geometry" />
        </mxCell>
        <mxCell id="UZARBfqPq7mCM7FByuxc-72" value="" style="image;html=1;image=img/lib/clip_art/computers/Printer_Commercial_128x128.png" parent="1" vertex="1">
          <mxGeometry x="354.4" y="140" width="80" height="80" as="geometry" />
        </mxCell>
        <mxCell id="UZARBfqPq7mCM7FByuxc-73" value="" style="image;html=1;image=img/lib/clip_art/computers/Printer_Commercial_128x128.png" parent="1" vertex="1">
          <mxGeometry x="292.8" y="140" width="80" height="80" as="geometry" />
        </mxCell>
        <mxCell id="UZARBfqPq7mCM7FByuxc-83" value="" style="sketch=0;pointerEvents=1;shadow=0;dashed=0;html=1;strokeColor=none;fillColor=#505050;labelPosition=center;verticalLabelPosition=bottom;verticalAlign=top;outlineConnect=0;align=center;shape=mxgraph.office.servers.file_server;" parent="1" vertex="1">
          <mxGeometry x="560" y="450" width="80" height="90" as="geometry" />
        </mxCell>
        <mxCell id="UZARBfqPq7mCM7FByuxc-86" value="" style="image;points=[];aspect=fixed;html=1;align=center;shadow=0;dashed=0;image=img/lib/allied_telesis/computer_and_terminals/Personal_Computer.svg;" parent="1" vertex="1">
          <mxGeometry x="444.4" y="10" width="45.6" height="61.800000000000004" as="geometry" />
        </mxCell>
        <mxCell id="UZARBfqPq7mCM7FByuxc-87" value="" style="image;points=[];aspect=fixed;html=1;align=center;shadow=0;dashed=0;image=img/lib/allied_telesis/computer_and_terminals/Personal_Computer.svg;" parent="1" vertex="1">
          <mxGeometry x="390" y="10" width="45.6" height="61.800000000000004" as="geometry" />
        </mxCell>
        <mxCell id="UZARBfqPq7mCM7FByuxc-88" value="" style="image;points=[];aspect=fixed;html=1;align=center;shadow=0;dashed=0;image=img/lib/allied_telesis/computer_and_terminals/Personal_Computer.svg;" parent="1" vertex="1">
          <mxGeometry x="340" y="10" width="45.6" height="61.800000000000004" as="geometry" />
        </mxCell>
        <mxCell id="UZARBfqPq7mCM7FByuxc-89" value="" style="image;points=[];aspect=fixed;html=1;align=center;shadow=0;dashed=0;image=img/lib/allied_telesis/computer_and_terminals/Personal_Computer.svg;" parent="1" vertex="1">
          <mxGeometry x="290" y="10" width="45.6" height="61.800000000000004" as="geometry" />
        </mxCell>
        <mxCell id="UZARBfqPq7mCM7FByuxc-96" value="" style="image;html=1;image=img/lib/clip_art/computers/Printer_Commercial_128x128.png" parent="1" vertex="1">
          <mxGeometry x="424.99999999999994" y="140" width="80" height="80" as="geometry" />
        </mxCell>
        <mxCell id="UZARBfqPq7mCM7FByuxc-98" value="" style="image;html=1;image=img/lib/clip_art/computers/Netbook_128x128.png" parent="1" vertex="1">
          <mxGeometry x="460" y="460" width="80" height="80" as="geometry" />
        </mxCell>
        <mxCell id="UZARBfqPq7mCM7FByuxc-99" value="" style="image;html=1;image=img/lib/clip_art/computers/Netbook_128x128.png" parent="1" vertex="1">
          <mxGeometry x="380" y="460" width="80" height="80" as="geometry" />
        </mxCell>
        <mxCell id="UZARBfqPq7mCM7FByuxc-100" value="" style="image;html=1;image=img/lib/clip_art/computers/Netbook_128x128.png" parent="1" vertex="1">
          <mxGeometry x="305.6" y="460" width="80" height="80" as="geometry" />
        </mxCell>
        <mxCell id="ygkBEAkFPcBX6Wyesa4U-12" style="edgeStyle=orthogonalEdgeStyle;rounded=0;orthogonalLoop=1;jettySize=auto;html=1;exitX=0;exitY=0.5;exitDx=0;exitDy=0;entryX=0.5;entryY=0;entryDx=0;entryDy=0;" edge="1" parent="1" source="ygkBEAkFPcBX6Wyesa4U-5" target="UZARBfqPq7mCM7FByuxc-96">
          <mxGeometry relative="1" as="geometry" />
        </mxCell>
        <mxCell id="ygkBEAkFPcBX6Wyesa4U-14" style="edgeStyle=orthogonalEdgeStyle;rounded=0;orthogonalLoop=1;jettySize=auto;html=1;exitX=0;exitY=0.5;exitDx=0;exitDy=0;entryX=0.5;entryY=0;entryDx=0;entryDy=0;" edge="1" parent="1" source="ygkBEAkFPcBX6Wyesa4U-5" target="UZARBfqPq7mCM7FByuxc-72">
          <mxGeometry relative="1" as="geometry" />
        </mxCell>
        <mxCell id="ygkBEAkFPcBX6Wyesa4U-15" style="edgeStyle=orthogonalEdgeStyle;rounded=0;orthogonalLoop=1;jettySize=auto;html=1;exitX=0;exitY=0.5;exitDx=0;exitDy=0;entryX=0.5;entryY=0;entryDx=0;entryDy=0;" edge="1" parent="1" source="ygkBEAkFPcBX6Wyesa4U-5" target="UZARBfqPq7mCM7FByuxc-73">
          <mxGeometry relative="1" as="geometry" />
        </mxCell>
        <mxCell id="ygkBEAkFPcBX6Wyesa4U-5" value="" style="image;html=1;image=img/lib/clip_art/networking/Switch_128x128.png" vertex="1" parent="1">
          <mxGeometry x="565" y="65" width="85" height="75" as="geometry" />
        </mxCell>
        <mxCell id="ygkBEAkFPcBX6Wyesa4U-7" style="edgeStyle=orthogonalEdgeStyle;rounded=0;orthogonalLoop=1;jettySize=auto;html=1;exitX=0;exitY=0.5;exitDx=0;exitDy=0;entryX=0.254;entryY=1.004;entryDx=0;entryDy=0;entryPerimeter=0;" edge="1" parent="1" source="ygkBEAkFPcBX6Wyesa4U-5" target="UZARBfqPq7mCM7FByuxc-86">
          <mxGeometry relative="1" as="geometry" />
        </mxCell>
        <mxCell id="ygkBEAkFPcBX6Wyesa4U-8" style="edgeStyle=orthogonalEdgeStyle;rounded=0;orthogonalLoop=1;jettySize=auto;html=1;exitX=0;exitY=0.5;exitDx=0;exitDy=0;entryX=0.395;entryY=1.004;entryDx=0;entryDy=0;entryPerimeter=0;" edge="1" parent="1" source="ygkBEAkFPcBX6Wyesa4U-5" target="UZARBfqPq7mCM7FByuxc-87">
          <mxGeometry relative="1" as="geometry" />
        </mxCell>
        <mxCell id="ygkBEAkFPcBX6Wyesa4U-10" style="edgeStyle=orthogonalEdgeStyle;rounded=0;orthogonalLoop=1;jettySize=auto;html=1;exitX=0;exitY=0.5;exitDx=0;exitDy=0;entryX=0.415;entryY=0.987;entryDx=0;entryDy=0;entryPerimeter=0;" edge="1" parent="1" source="ygkBEAkFPcBX6Wyesa4U-5" target="UZARBfqPq7mCM7FByuxc-88">
          <mxGeometry relative="1" as="geometry" />
        </mxCell>
        <mxCell id="ygkBEAkFPcBX6Wyesa4U-11" style="edgeStyle=orthogonalEdgeStyle;rounded=0;orthogonalLoop=1;jettySize=auto;html=1;exitX=0;exitY=0.5;exitDx=0;exitDy=0;entryX=0.482;entryY=0.987;entryDx=0;entryDy=0;entryPerimeter=0;" edge="1" parent="1" source="ygkBEAkFPcBX6Wyesa4U-5" target="UZARBfqPq7mCM7FByuxc-89">
          <mxGeometry relative="1" as="geometry" />
        </mxCell>
        <mxCell id="ygkBEAkFPcBX6Wyesa4U-17" style="edgeStyle=orthogonalEdgeStyle;rounded=0;orthogonalLoop=1;jettySize=auto;html=1;exitX=0;exitY=0.5;exitDx=0;exitDy=0;" edge="1" parent="1" source="ygkBEAkFPcBX6Wyesa4U-16">
          <mxGeometry relative="1" as="geometry">
            <mxPoint x="180" y="310" as="targetPoint" />
          </mxGeometry>
        </mxCell>
        <mxCell id="ygkBEAkFPcBX6Wyesa4U-18" style="edgeStyle=orthogonalEdgeStyle;rounded=0;orthogonalLoop=1;jettySize=auto;html=1;exitX=0;exitY=0.5;exitDx=0;exitDy=0;entryX=1;entryY=0.5;entryDx=0;entryDy=0;" edge="1" parent="1" source="ygkBEAkFPcBX6Wyesa4U-16" target="UZARBfqPq7mCM7FByuxc-26">
          <mxGeometry relative="1" as="geometry" />
        </mxCell>
        <mxCell id="ygkBEAkFPcBX6Wyesa4U-19" style="edgeStyle=orthogonalEdgeStyle;rounded=0;orthogonalLoop=1;jettySize=auto;html=1;exitX=0;exitY=0.5;exitDx=0;exitDy=0;" edge="1" parent="1" source="ygkBEAkFPcBX6Wyesa4U-16" target="UZARBfqPq7mCM7FByuxc-38">
          <mxGeometry relative="1" as="geometry" />
        </mxCell>
        <mxCell id="ygkBEAkFPcBX6Wyesa4U-30" style="edgeStyle=orthogonalEdgeStyle;rounded=0;orthogonalLoop=1;jettySize=auto;html=1;exitX=0;exitY=0.5;exitDx=0;exitDy=0;" edge="1" parent="1" source="ygkBEAkFPcBX6Wyesa4U-16">
          <mxGeometry relative="1" as="geometry">
            <mxPoint x="380" y="350" as="targetPoint" />
          </mxGeometry>
        </mxCell>
        <mxCell id="ygkBEAkFPcBX6Wyesa4U-31" style="edgeStyle=orthogonalEdgeStyle;rounded=0;orthogonalLoop=1;jettySize=auto;html=1;exitX=0;exitY=0.5;exitDx=0;exitDy=0;" edge="1" parent="1" source="ygkBEAkFPcBX6Wyesa4U-16">
          <mxGeometry relative="1" as="geometry">
            <mxPoint x="320" y="350" as="targetPoint" />
          </mxGeometry>
        </mxCell>
        <mxCell id="ygkBEAkFPcBX6Wyesa4U-16" value="" style="image;html=1;image=img/lib/clip_art/networking/Switch_128x128.png" vertex="1" parent="1">
          <mxGeometry x="390" y="274.90999999999997" width="85" height="75" as="geometry" />
        </mxCell>
        <mxCell id="ygkBEAkFPcBX6Wyesa4U-22" style="edgeStyle=orthogonalEdgeStyle;rounded=0;orthogonalLoop=1;jettySize=auto;html=1;exitX=0;exitY=0.5;exitDx=0;exitDy=0;entryX=0.997;entryY=0.62;entryDx=0;entryDy=0;entryPerimeter=0;" edge="1" parent="1" source="ygkBEAkFPcBX6Wyesa4U-16" target="UZARBfqPq7mCM7FByuxc-37">
          <mxGeometry relative="1" as="geometry" />
        </mxCell>
        <mxCell id="ygkBEAkFPcBX6Wyesa4U-23" style="edgeStyle=orthogonalEdgeStyle;rounded=0;orthogonalLoop=1;jettySize=auto;html=1;exitX=0;exitY=0.5;exitDx=0;exitDy=0;entryX=0.997;entryY=0.621;entryDx=0;entryDy=0;entryPerimeter=0;" edge="1" parent="1" source="ygkBEAkFPcBX6Wyesa4U-16" target="UZARBfqPq7mCM7FByuxc-51">
          <mxGeometry relative="1" as="geometry" />
        </mxCell>
        <mxCell id="ygkBEAkFPcBX6Wyesa4U-24" style="edgeStyle=orthogonalEdgeStyle;rounded=0;orthogonalLoop=1;jettySize=auto;html=1;exitX=0;exitY=0.5;exitDx=0;exitDy=0;entryX=0.997;entryY=0.588;entryDx=0;entryDy=0;entryPerimeter=0;" edge="1" parent="1" source="ygkBEAkFPcBX6Wyesa4U-16" target="UZARBfqPq7mCM7FByuxc-50">
          <mxGeometry relative="1" as="geometry" />
        </mxCell>
        <mxCell id="ygkBEAkFPcBX6Wyesa4U-33" style="edgeStyle=orthogonalEdgeStyle;rounded=0;orthogonalLoop=1;jettySize=auto;html=1;exitX=0;exitY=0.5;exitDx=0;exitDy=0;" edge="1" parent="1" source="ygkBEAkFPcBX6Wyesa4U-25" target="UZARBfqPq7mCM7FByuxc-83">
          <mxGeometry relative="1" as="geometry" />
        </mxCell>
        <mxCell id="ygkBEAkFPcBX6Wyesa4U-34" style="edgeStyle=orthogonalEdgeStyle;rounded=0;orthogonalLoop=1;jettySize=auto;html=1;exitX=0;exitY=0.5;exitDx=0;exitDy=0;entryX=1;entryY=0.5;entryDx=0;entryDy=0;" edge="1" parent="1" source="ygkBEAkFPcBX6Wyesa4U-25" target="UZARBfqPq7mCM7FByuxc-14">
          <mxGeometry relative="1" as="geometry" />
        </mxCell>
        <mxCell id="ygkBEAkFPcBX6Wyesa4U-35" style="edgeStyle=orthogonalEdgeStyle;rounded=0;orthogonalLoop=1;jettySize=auto;html=1;exitX=0;exitY=0.5;exitDx=0;exitDy=0;entryX=0.5;entryY=1;entryDx=0;entryDy=0;" edge="1" parent="1" source="ygkBEAkFPcBX6Wyesa4U-25" target="UZARBfqPq7mCM7FByuxc-98">
          <mxGeometry relative="1" as="geometry" />
        </mxCell>
        <mxCell id="ygkBEAkFPcBX6Wyesa4U-36" style="edgeStyle=orthogonalEdgeStyle;rounded=0;orthogonalLoop=1;jettySize=auto;html=1;exitX=0;exitY=0.5;exitDx=0;exitDy=0;entryX=0.5;entryY=1;entryDx=0;entryDy=0;" edge="1" parent="1" source="ygkBEAkFPcBX6Wyesa4U-25" target="UZARBfqPq7mCM7FByuxc-99">
          <mxGeometry relative="1" as="geometry" />
        </mxCell>
        <mxCell id="ygkBEAkFPcBX6Wyesa4U-37" style="edgeStyle=orthogonalEdgeStyle;rounded=0;orthogonalLoop=1;jettySize=auto;html=1;exitX=0;exitY=0.5;exitDx=0;exitDy=0;entryX=0.25;entryY=1;entryDx=0;entryDy=0;" edge="1" parent="1" source="ygkBEAkFPcBX6Wyesa4U-25" target="UZARBfqPq7mCM7FByuxc-100">
          <mxGeometry relative="1" as="geometry" />
        </mxCell>
        <mxCell id="ygkBEAkFPcBX6Wyesa4U-39" style="edgeStyle=orthogonalEdgeStyle;rounded=0;orthogonalLoop=1;jettySize=auto;html=1;exitX=0;exitY=0.5;exitDx=0;exitDy=0;" edge="1" parent="1" source="ygkBEAkFPcBX6Wyesa4U-25" target="UZARBfqPq7mCM7FByuxc-21">
          <mxGeometry relative="1" as="geometry" />
        </mxCell>
        <mxCell id="ygkBEAkFPcBX6Wyesa4U-40" style="edgeStyle=orthogonalEdgeStyle;rounded=0;orthogonalLoop=1;jettySize=auto;html=1;exitX=0;exitY=0.5;exitDx=0;exitDy=0;" edge="1" parent="1" source="ygkBEAkFPcBX6Wyesa4U-25" target="UZARBfqPq7mCM7FByuxc-20">
          <mxGeometry relative="1" as="geometry" />
        </mxCell>
        <mxCell id="ygkBEAkFPcBX6Wyesa4U-41" style="edgeStyle=orthogonalEdgeStyle;rounded=0;orthogonalLoop=1;jettySize=auto;html=1;exitX=0;exitY=0.5;exitDx=0;exitDy=0;" edge="1" parent="1" source="ygkBEAkFPcBX6Wyesa4U-25" target="UZARBfqPq7mCM7FByuxc-18">
          <mxGeometry relative="1" as="geometry" />
        </mxCell>
        <mxCell id="ygkBEAkFPcBX6Wyesa4U-42" style="edgeStyle=orthogonalEdgeStyle;rounded=0;orthogonalLoop=1;jettySize=auto;html=1;exitX=0;exitY=0.5;exitDx=0;exitDy=0;" edge="1" parent="1" source="ygkBEAkFPcBX6Wyesa4U-25" target="UZARBfqPq7mCM7FByuxc-19">
          <mxGeometry relative="1" as="geometry" />
        </mxCell>
        <mxCell id="ygkBEAkFPcBX6Wyesa4U-25" value="" style="image;html=1;image=img/lib/clip_art/networking/Switch_128x128.png" vertex="1" parent="1">
          <mxGeometry x="750" y="539.9999999999999" width="85" height="75" as="geometry" />
        </mxCell>
      </root>
    </mxGraphModel>
  </diagram>
</mxfile>
